Coordinates
version=1
nRows=11
nColumns=40
inDegrees=yes

Units are S.I. units (second, meters, Newtons, ...)
Angles are in degrees.

endheader
time	pelvis_tilt	pelvis_list	pelvis_rotation	pelvis_tx	pelvis_ty	pelvis_tz	hip_flexion_r	hip_adduction_r	hip_rotation_r	knee_angle_r	knee_angle_r_beta	ankle_angle_r	subtalar_angle_r	mtp_angle_r	hip_flexion_l	hip_adduction_l	hip_rotation_l	knee_angle_l	knee_angle_l_beta	ankle_angle_l	subtalar_angle_l	mtp_angle_l	lumbar_extension	lumbar_bending	lumbar_rotation	arm_flex_r	arm_add_r	arm_rot_r	elbow_flex_r	pro_sup_r	wrist_flex_r	wrist_dev_r	arm_flex_l	arm_add_l	arm_rot_l	elbow_flex_l	pro_sup_l	wrist_flex_l	wrist_dev_l
      0.75000000	      0.73652078	     -2.79314474	     -2.04282266	     -0.75752734	      0.88897063	     -1.45295615	     21.74995937	      2.02572018	    -20.46977230	    -19.07947922	     -0.33299973	     -6.33467493	     -0.11334891	     -2.69436309	    -12.80796887	      1.83089341	     12.80250949	    -19.69628528	     -0.34376503	      8.82223342	     -8.07960142	     -5.43550215	     -8.81012446	      5.82439438	     -4.89659525	      3.73067775	     -8.66121290	     14.84772424	     14.78528846	     89.95437384	      0.00000000	      0.00000000	     11.99076402	      8.75531472	     -8.78121363	     30.45880807	     89.95437384	      0.00000000	      0.00000000
      0.76000000	      0.50770194	     -2.70928732	     -2.13600489	     -0.74838483	      0.88967146	     -1.45183928	     21.60792763	      2.01965843	    -20.07104501	    -19.55803378	     -0.34135208	     -6.27256332	     -0.08663962	     -2.65183981	    -12.75814429	      1.79264052	     12.45650292	    -20.33544979	     -0.35492055	      8.37990243	     -7.76049951	     -5.31123541	     -8.48376648	      5.79383682	     -4.77415764	      3.60034836	     -8.78539702	     14.80085785	     15.04830562	     89.95437384	      0.00000000	      0.00000000	     11.09150051	      8.54796052	     -8.81597354	     30.19939851	     89.95437384	      0.00000000	      0.00000000
      0.77000000	      0.51040332	     -3.74421312	     -2.02841714	     -0.73908181	      0.89110340	     -1.44988534	     20.70906326	      3.45075240	    -19.63467527	    -19.17473384	     -0.33466224	     -5.47598708	     -0.47896850	     -2.69723500	    -12.52972999	      3.46628995	     13.39773487	    -21.91140835	     -0.38242622	      6.45882176	     -8.52180107	     -5.85132556	     -8.33925864	      6.93490111	     -4.63759503	      3.90386415	     -8.87644576	     15.64255887	     14.29715952	     89.95437384	      0.00000000	      0.00000000	     10.83449817	      7.82922425	     -8.21356961	     28.31931553	     89.95437384	      0.00000000	      0.00000000
      0.78000000	      0.39965629	     -3.89588975	     -2.07627951	     -0.72987728	      0.89232484	     -1.44851945	     20.26162872	      3.70527492	    -19.43898459	    -19.43852283	     -0.33926623	     -4.73421383	     -0.58344990	     -2.71021871	    -12.30303552	      3.78980636	     13.17039291	    -23.04590982	     -0.40222701	      5.24249704	     -7.81205490	     -5.66046330	     -8.09254548	      7.13185671	     -4.39906180	      3.98645581	     -8.93029383	     15.73101222	     13.98732819	     89.95437384	      0.00000000	      0.00000000	     10.32349098	      7.47009099	     -8.36847756	     27.13369774	     89.95437384	      0.00000000	      0.00000000
      0.79000000	      0.28462830	     -4.11910029	     -2.02741850	     -0.72074606	      0.89358264	     -1.44710935	     19.64094103	      4.09182268	    -19.19913646	    -19.35340261	     -0.33778060	     -3.97767064	     -0.58250906	     -2.69102330	    -11.82587081	      4.29412138	     13.05587214	    -24.58116523	     -0.42902227	      3.82618971	     -7.12580989	     -5.47572702	     -7.84746332	      7.40336762	     -4.26882142	      4.01632705	     -9.01869966	     15.79103906	     13.90136224	     89.95437384	      0.00000000	      0.00000000	      9.82572210	      7.12853035	     -8.40642012	     25.91157898	     89.95437384	      0.00000000	      0.00000000
      0.80000000	      0.18509621	     -4.15858899	     -2.17201619	     -0.71184789	      0.89482900	     -1.44558923	     19.00339441	      4.26627843	    -19.21635854	    -19.22194141	     -0.33548617	     -3.42847265	     -0.45205828	     -2.67617558	    -11.25806472	      4.54444120	     12.97446311	    -26.26327506	     -0.45838062	      2.45450381	     -6.52167296	     -5.27054482	     -7.67933699	      7.46177633	     -3.93458720	      4.11787233	     -9.10968692	     15.85222443	     13.79555390	     89.95437384	      0.00000000	      0.00000000	      9.27956202	      6.83582836	     -8.44809282	     24.86800357	     89.95437384	      0.00000000	      0.00000000
      0.81000000	      0.09932321	     -4.24265824	     -2.05913568	     -0.70284572	      0.89597178	     -1.44418574	     18.28600175	      4.47394019	    -19.24908915	    -18.98647598	     -0.33137652	     -2.79515457	     -0.20986462	     -2.68196576	    -10.49265805	      5.02243656	     13.07214973	    -28.19959471	     -0.49217578	      0.72633540	     -5.89080368	     -5.03208051	     -7.45244515	      7.54744622	     -3.82835999	      4.14058881	     -9.17173602	     15.95014726	     13.79052452	     89.95437384	      0.00000000	      0.00000000	      8.79451082	      6.57805353	     -8.53100823	     23.61021211	     89.95437384	      0.00000000	      0.00000000
      0.82000000	     -0.26964435	     -4.87413329	     -1.83822656	     -0.69380981	      0.89641821	     -1.44228000	     17.78545955	      5.26911471	    -19.75345352	    -18.56207015	     -0.32396924	     -2.41967444	      0.47066701	     -2.56064732	     -9.15886340	      6.56955691	     13.96320492	    -30.70492159	     -0.53590198	     -1.48604662	     -7.16866577	     -5.52465861	     -6.88295189	      8.22047435	     -3.83681722	      4.11358409	     -9.31057171	     15.99148786	     13.89212947	     89.95437384	      0.00000000	      0.00000000	      8.20699437	      6.32844645	     -8.42119720	     22.43202887	     89.95437384	      0.00000000	      0.00000000
      0.83000000	     -0.36338885	     -4.90270708	     -1.78248741	     -0.68508689	      0.89718932	     -1.44074241	     17.17599485	      5.40876939	    -19.83101369	    -18.47829052	     -0.32250701	     -1.69954911	      0.76443175	     -2.57952584	     -8.16460468	      6.96877386	     13.78256634	    -32.84653842	     -0.57328024	     -3.51504194	     -6.19732273	     -5.31219126	     -6.68551814	      8.22822875	     -3.62800076	      4.15089350	     -9.42408530	     16.00861691	     14.02396300	     89.95437384	      0.00000000	      0.00000000	      7.77132451	      6.16312934	     -8.57967100	     21.26120606	     89.95437384	      0.00000000	      0.00000000
      0.84000000	     -0.38973309	     -4.86773590	     -1.68282708	     -0.67656393	      0.89782521	     -1.43927862	     16.54901448	      5.42650297	    -20.00211017	    -18.49149880	     -0.32273754	     -1.07964879	      1.14399897	     -2.63675597	     -7.12752086	      7.37336607	     13.70709668	    -35.06526793	     -0.61200438	     -5.51145282	     -5.19556803	     -5.08736988	     -6.58423849	      8.14671825	     -3.46732467	      4.25397361	     -9.50385664	     16.10225034	     14.12599342	     89.95437384	      0.00000000	      0.00000000	      7.36495157	      6.05428507	     -8.75540075	     20.13771006	     89.95437384	      0.00000000	      0.00000000
      0.85000000	     -0.72665454	     -5.11815892	     -1.46964643	     -0.66839783	      0.89774193	     -1.43774342	     16.32633574	      5.64743710	    -20.69101167	    -18.57362087	     -0.32417084	     -0.48134606	      2.24159306	     -2.78007945	     -5.49720597	      8.13633999	     13.35915865	    -37.54059620	     -0.65520701	     -7.91367542	     -4.24431461	     -5.31867588	     -6.15919724	      8.39361575	     -3.38220229	      4.33866099	     -9.63643879	     16.09046535	     14.32048089	     89.95437384	      0.00000000	      0.00000000	      6.94007989	      5.95155903	     -8.87037031	     19.07027276	     89.95437384	      0.00000000	      0.00000000
